<svg width="36" height="37" viewBox="0 0 36 37" fill="none" xmlns="http://www.w3.org/2000/svg">
<path fill-rule="evenodd" clip-rule="evenodd" d="M15.7681 22.2919C15.7681 21.039 15.7627 19.7867 15.7728 18.5339C15.7748 18.323 15.7108 18.2568 15.4844 18.265C15.0667 18.2808 14.6476 18.2631 14.2298 18.2726C14.0607 18.2764 13.998 18.2329 14 18.0648C14.0088 17.2835 14.0075 16.5015 14.0007 15.7196C13.9994 15.5691 14.0479 15.52 14.2103 15.5232C14.6381 15.5326 15.0667 15.5118 15.4932 15.532C15.7405 15.5433 15.7917 15.4615 15.7869 15.2468C15.7721 14.6518 15.7721 14.0562 15.7863 13.4613C15.8031 12.7347 16.012 12.0566 16.4749 11.4655C17.0611 10.7181 17.8946 10.3756 18.8554 10.336C19.8432 10.2951 20.833 10.3177 21.8214 10.3076C21.9595 10.3064 22.0006 10.3523 22 10.4776C21.9953 11.2684 21.9946 12.0592 22 12.8493C22.0013 12.9897 21.9521 13.0331 21.8046 13.0306C21.3289 13.0237 20.8539 13.0268 20.3788 13.0281C19.7461 13.03 19.3675 13.3341 19.3277 13.9196C19.296 14.3886 19.319 14.8608 19.3075 15.3311C19.3035 15.4986 19.4099 15.4873 19.5285 15.4873C20.2508 15.486 20.9738 15.4942 21.6961 15.4822C21.9083 15.4791 21.9784 15.5244 21.9542 15.7328C21.8632 16.5185 21.785 17.3049 21.7129 18.0925C21.6968 18.2701 21.6098 18.3041 21.4387 18.3015C20.8687 18.2934 20.298 18.2959 19.7279 18.299C19.3183 18.3015 19.358 18.243 19.358 18.6333C19.356 21.085 19.3526 23.5372 19.3641 25.9888C19.3654 26.2476 19.2947 26.3118 19.0205 26.3074C18.0414 26.2904 17.0618 26.2898 16.0827 26.3074C15.8072 26.3124 15.7613 26.2249 15.7634 25.9951C15.7741 24.7605 15.7687 23.5259 15.7687 22.2906L15.7681 22.2919Z" fill="#282828"/>
<rect x="0.5" y="0.807617" width="35" height="35" rx="17.5" stroke="#282828"/>
</svg>
