<svg width="36" height="36" viewBox="0 0 36 36" fill="none" xmlns="http://www.w3.org/2000/svg">
<rect x="0.5" y="0.5" width="35" height="35" rx="17.5" fill="#282828"/>
<path fill-rule="evenodd" clip-rule="evenodd" d="M15.7681 21.9843C15.7681 20.7314 15.7627 19.4791 15.7728 18.2262C15.7748 18.0153 15.7108 17.9492 15.4844 17.9574C15.0667 17.9732 14.6476 17.9555 14.2298 17.965C14.0607 17.9687 13.998 17.9253 14 17.7572C14.0088 16.9759 14.0075 16.1939 14.0007 15.412C13.9994 15.2615 14.0479 15.2124 14.2103 15.2155C14.6381 15.225 15.0667 15.2042 15.4932 15.2244C15.7405 15.2357 15.7917 15.1538 15.7869 14.9392C15.7721 14.3442 15.7721 13.7486 15.7863 13.1536C15.8031 12.4271 16.012 11.749 16.4749 11.1578C17.0611 10.4105 17.8946 10.068 18.8554 10.0284C19.8432 9.98743 20.833 10.0101 21.8214 10C21.9595 9.99877 22.0006 10.0447 22 10.17C21.9953 10.9608 21.9946 11.7515 22 12.5417C22.0013 12.6821 21.9521 12.7255 21.8046 12.723C21.3289 12.7161 20.8539 12.7192 20.3788 12.7205C19.7461 12.7224 19.3675 13.0265 19.3277 13.612C19.296 14.081 19.319 14.5532 19.3075 15.0235C19.3035 15.191 19.4099 15.1797 19.5285 15.1797C20.2508 15.1784 20.9738 15.1866 21.6961 15.1746C21.9083 15.1715 21.9784 15.2168 21.9542 15.4252C21.8632 16.2109 21.785 16.9973 21.7129 17.7849C21.6968 17.9624 21.6098 17.9964 21.4387 17.9939C20.8687 17.9857 20.298 17.9883 19.7279 17.9914C19.3183 17.9939 19.358 17.9354 19.358 18.3257C19.356 20.7773 19.3526 23.2296 19.3641 25.6812C19.3654 25.94 19.2947 26.0042 19.0205 25.9998C18.0414 25.9828 17.0618 25.9822 16.0827 25.9998C15.8072 26.0048 15.7613 25.9173 15.7634 25.6875C15.7741 24.4529 15.7687 23.2183 15.7687 21.983L15.7681 21.9843Z" fill="white"/>
<rect x="0.5" y="0.5" width="35" height="35" rx="17.5" stroke="#282828"/>
</svg>
