<svg width="36" height="36" viewBox="0 0 36 36" fill="none" xmlns="http://www.w3.org/2000/svg">
<rect x="0.5" y="0.5" width="35" height="35" rx="17.5" fill="#282828"/>
<path d="M16.0765 25.0393V20.236H19.9192V25.0393C19.9192 25.5677 20.3515 26 20.8799 26H23.7619C24.2903 26 24.7226 25.5677 24.7226 25.0393V18.3146H26.3557C26.7976 18.3146 27.009 17.767 26.6727 17.4788L18.6415 10.245C18.2765 9.91834 17.7193 9.91834 17.3542 10.245L9.32299 17.4788C8.99637 17.767 9.19811 18.3146 9.64002 18.3146H11.2732V25.0393C11.2732 25.5677 11.7055 26 12.2338 26H15.1158C15.6442 26 16.0765 25.5677 16.0765 25.0393Z" fill="white"/>
<rect x="0.5" y="0.5" width="35" height="35" rx="17.5" stroke="#282828"/>
</svg>
