<svg width="36" height="37" viewBox="0 0 36 37" fill="none" xmlns="http://www.w3.org/2000/svg">
<path d="M16.0765 25.3469V20.5436H19.9192V25.3469C19.9192 25.8753 20.3515 26.3076 20.8799 26.3076H23.7619C24.2903 26.3076 24.7226 25.8753 24.7226 25.3469V18.6222H26.3557C26.7976 18.6222 27.009 18.0747 26.6727 17.7865L18.6415 10.5526C18.2765 10.226 17.7193 10.226 17.3542 10.5526L9.32299 17.7865C8.99637 18.0747 9.19811 18.6222 9.64002 18.6222H11.2732V25.3469C11.2732 25.8753 11.7055 26.3076 12.2338 26.3076H15.1158C15.6442 26.3076 16.0765 25.8753 16.0765 25.3469Z" fill="#282828"/>
<rect x="0.5" y="0.807617" width="35" height="35" rx="17.5" stroke="#282828"/>
</svg>
