<svg width="36" height="36" viewBox="0 0 36 36" fill="none" xmlns="http://www.w3.org/2000/svg">
<rect x="0.5" y="0.5" width="35" height="35" rx="17.5" fill="#282828"/>
<path fill-rule="evenodd" clip-rule="evenodd" d="M21.8041 9H14.1959C11.3262 9 9 11.3262 9 14.1959V21.8041C9 24.6738 11.3262 27 14.1959 27H21.806C24.6757 27 27.002 24.6738 27.002 21.8041V14.1959C27.002 11.3262 24.6757 9 21.806 9H21.8041ZM17.999 13.3749C15.4187 13.3749 13.329 15.4666 13.329 18.045C13.329 20.6234 15.4206 22.715 17.999 22.715C20.5774 22.715 22.6691 20.6234 22.6691 18.045C22.6691 15.4666 20.5774 13.3749 17.999 13.3749ZM17.999 21.073C16.3277 21.073 14.971 19.7163 14.971 18.045C14.971 16.3736 16.3257 15.0169 17.999 15.0169C19.6724 15.0169 21.027 16.3716 21.027 18.045C21.027 19.7183 19.6724 21.073 17.999 21.073ZM21.7366 13.197C21.7366 12.5949 22.2253 12.1082 22.8255 12.1082C23.4276 12.1082 23.9143 12.5949 23.9143 13.197C23.9143 13.7991 23.4276 14.2858 22.8255 14.2858C22.2234 14.2858 21.7366 13.7991 21.7366 13.197Z" fill="white"/>
<rect x="0.5" y="0.5" width="35" height="35" rx="17.5" stroke="#282828"/>
</svg>
