<svg width="36" height="37" viewBox="0 0 36 37" fill="none" xmlns="http://www.w3.org/2000/svg">
<rect x="0.5" y="0.807617" width="35" height="35" rx="17.5" stroke="#282828"/>
<path fill-rule="evenodd" clip-rule="evenodd" d="M21.8031 9.30762H14.1949C11.3253 9.30762 8.99902 11.6339 8.99902 14.5035V22.1117C8.99902 24.9814 11.3253 27.3076 14.1949 27.3076H21.8051C24.6747 27.3076 27.001 24.9814 27.001 22.1117V14.5035C27.001 11.6339 24.6747 9.30762 21.8051 9.30762H21.8031ZM17.999 13.6825C15.4187 13.6825 13.329 15.7742 13.329 18.3526C13.329 20.931 15.4206 23.0226 17.999 23.0226C20.5774 23.0226 22.6691 20.931 22.6691 18.3526C22.6691 15.7742 20.5774 13.6825 17.999 13.6825ZM17.999 21.3806C16.3277 21.3806 14.971 20.024 14.971 18.3526C14.971 16.6812 16.3257 15.3246 17.999 15.3246C19.6724 15.3246 21.027 16.6793 21.027 18.3526C21.027 20.0259 19.6724 21.3806 17.999 21.3806ZM21.7366 13.5046C21.7366 12.9025 22.2253 12.4158 22.8255 12.4158C23.4276 12.4158 23.9143 12.9025 23.9143 13.5046C23.9143 14.1067 23.4276 14.5935 22.8255 14.5935C22.2234 14.5935 21.7366 14.1067 21.7366 13.5046Z" fill="#282828"/>
</svg>
