<svg width="36" height="36" viewBox="0 0 36 36" fill="none" xmlns="http://www.w3.org/2000/svg">
<rect x="0.5" y="0.5" width="35" height="35" rx="17.5" fill="#282828"/>
<path d="M22.5 10.8H13.5C10.8 10.8 9 12.6 9 15.3V20.7C9 23.4 10.8 25.2 13.5 25.2H22.5C25.2 25.2 27 23.4 27 20.7V15.3C27 12.6 25.2 10.8 22.5 10.8ZM19.701 18.927L17.478 20.259C16.578 20.799 15.84 20.385 15.84 19.332V16.659C15.84 15.6061 16.578 15.1921 17.478 15.7321L19.701 17.064C20.556 17.586 20.556 18.414 19.701 18.927Z" fill="white"/>
<rect x="0.5" y="0.5" width="35" height="35" rx="17.5" stroke="#282828"/>
</svg>
