<svg width="36" height="37" viewBox="0 0 36 37" fill="none" xmlns="http://www.w3.org/2000/svg">
<path d="M22.5 11.1076H13.5C10.8 11.1076 9 12.9076 9 15.6076V21.0076C9 23.7076 10.8 25.5076 13.5 25.5076H22.5C25.2 25.5076 27 23.7076 27 21.0076V15.6076C27 12.9076 25.2 11.1076 22.5 11.1076ZM19.701 19.2346L17.478 20.5666C16.578 21.1066 15.84 20.6926 15.84 19.6396V16.9666C15.84 15.9136 16.578 15.4996 17.478 16.0396L19.701 17.3716C20.556 17.8936 20.556 18.7216 19.701 19.2346Z" fill="#282828"/>
<rect x="0.5" y="0.807617" width="35" height="35" rx="17.5" stroke="#282828"/>
</svg>
