<svg width="80" height="80" viewBox="0 0 80 80" fill="none" xmlns="http://www.w3.org/2000/svg">
<path d="M43.0586 47.6602H36.0859L35.3477 19.9062H43.8242L43.0586 47.6602ZM39.5859 59.9922C38.7474 59.9922 37.9727 59.7917 37.2617 59.3906C36.569 58.9714 36.013 58.4062 35.5938 57.6953C35.1745 56.9844 34.974 56.2096 34.9922 55.3711C34.974 54.5508 35.1745 53.7943 35.5938 53.1016C36.013 52.4089 36.569 51.862 37.2617 51.4609C37.9727 51.0599 38.7474 50.8594 39.5859 50.8594C40.388 50.8594 41.1354 51.0599 41.8281 51.4609C42.5391 51.862 43.1042 52.418 43.5234 53.1289C43.9427 53.8216 44.1615 54.569 44.1797 55.3711C44.1615 56.2096 43.9427 56.9844 43.5234 57.6953C43.1042 58.4062 42.5391 58.9714 41.8281 59.3906C41.1354 59.7917 40.388 59.9922 39.5859 59.9922Z" fill="#282828"/>
<rect x="1" y="1" width="78" height="78" rx="39" stroke="#282828" stroke-width="2"/>
</svg>
