<svg width="24" height="25" viewBox="0 0 24 25" fill="none" xmlns="http://www.w3.org/2000/svg">
<path d="M23.5588 21.9944L17.0934 15.6902C18.4507 14.0385 19.1882 12.002 19.1882 9.85507C19.1882 7.35618 18.1903 5.0069 16.3784 3.24017C14.566 1.47305 12.1567 0.5 9.59389 0.5C7.0311 0.5 4.62215 1.47305 2.80984 3.23977C0.997931 5.00689 0 7.35618 0 9.85467C0 12.3532 0.997931 14.7025 2.80984 16.4696C4.62174 18.2363 7.0311 19.2093 9.59389 19.2093C11.4974 19.2093 13.3158 18.672 14.8684 17.672L21.4303 24.0702C22.018 24.6433 22.9711 24.6433 23.5592 24.0702C24.1469 23.4972 24.1469 22.5678 23.5592 21.9944H23.5588ZM9.59389 16.5902C5.78491 16.5902 2.68611 13.5687 2.68611 9.85467C2.68611 6.14066 5.78491 3.11913 9.59389 3.11913C13.4029 3.11913 16.5017 6.14066 16.5017 9.85467C16.5017 13.5687 13.4029 16.5902 9.59389 16.5902Z" fill="white"/>
</svg>
