<svg width="32" height="32" viewBox="0 0 32 32" fill="none" xmlns="http://www.w3.org/2000/svg">
<g clip-path="url(#clip0_814_237)">
<path d="M11.2922 15.7071C11.2552 16.6998 11.3888 17.7049 11.6868 18.6956H15.3824V13.218H11.7279C11.4669 14.0504 11.321 14.887 11.2901 15.705L11.2922 15.7071Z" fill="white"/>
<path d="M12.1986 11.9848H15.3844V7.52673C14.4636 8.42493 13.103 9.97056 12.1986 11.9848Z" fill="white"/>
<path d="M15.3844 24.426V19.9288H12.1513C12.8296 21.4539 13.9169 22.9626 15.3844 24.426Z" fill="white"/>
<path d="M10.059 15.6536C10.0898 14.8479 10.2152 14.0299 10.4371 13.218H7.33148C7.04168 14.1203 6.89369 15.0535 6.89369 15.9989C6.89369 16.9444 7.0314 17.82 7.30271 18.6935H10.4022C10.135 17.6864 10.0199 16.6649 10.0569 15.6516L10.059 15.6536Z" fill="white"/>
<path d="M7.78984 19.9288C9.01484 22.4754 11.3867 24.3314 14.1348 24.911C12.5932 23.2976 11.4751 21.6245 10.8092 19.9288H7.78984Z" fill="white"/>
<path d="M14.0505 7.10742C11.3765 7.69937 9.05389 9.51426 7.83095 11.9869H10.8462C11.6683 9.89655 12.9653 8.23993 14.0505 7.10742Z" fill="white"/>
<path d="M16.6176 7.48364V11.9849H19.8487C18.9135 9.90075 17.4624 8.30168 16.6176 7.48364Z" fill="white"/>
<path d="M21.9842 15.6536C22.0212 16.6669 21.9061 17.6885 21.6389 18.6956H24.6952C24.9665 17.8221 25.1042 16.9156 25.1042 16.001C25.1042 15.0864 24.9563 14.1203 24.6665 13.2201H21.604C21.8259 14.032 21.9534 14.85 21.9821 15.6557L21.9842 15.6536Z" fill="white"/>
<path d="M20.753 15.7009C20.7222 14.8849 20.5763 14.0505 20.3173 13.2201H16.6176V18.6976H20.3584C20.6585 17.7049 20.79 16.6978 20.753 15.703V15.7009Z" fill="white"/>
<path d="M18.003 7.11572C19.0861 8.24617 20.3769 9.90074 21.197 11.9849H24.1691C22.942 9.49378 20.6852 7.71794 18.003 7.11572Z" fill="white"/>
<path d="M16.001 0C7.16295 0 0 7.16295 0 16.001C0 24.8391 7.16295 32.0021 16.001 32.0021C24.8391 32.0021 32.0021 24.8391 32.0021 16.001C32.0021 7.16295 24.837 0 16.001 0ZM16.001 26.3395C10.2994 26.3395 5.66253 21.7006 5.66253 16.001C5.66253 10.3015 10.2994 5.66253 16.001 5.66253C21.7026 5.66253 26.3395 10.3015 26.3395 16.001C26.3395 21.7006 21.7006 26.3395 16.001 26.3395Z" fill="white"/>
<path d="M16.6176 19.9288V24.4691C18.1098 22.9913 19.2095 21.4662 19.8939 19.9288H16.6176Z" fill="white"/>
<path d="M17.9207 24.8987C20.6441 24.3068 22.9954 22.4569 24.2102 19.9288H21.234C20.5701 21.6204 19.4561 23.2894 17.9187 24.8987H17.9207Z" fill="white"/>
</g>
<defs>
<clipPath id="clip0_814_237">
<rect width="32" height="32" fill="white"/>
</clipPath>
</defs>
</svg>
