<svg width="71" height="71" viewBox="0 0 71 71" fill="none" xmlns="http://www.w3.org/2000/svg">
<path fill-rule="evenodd" clip-rule="evenodd" d="M1.70711 0.292892C1.31658 -0.0976316 0.683416 -0.0976306 0.292892 0.292894C-0.0976316 0.683419 -0.0976306 1.31658 0.292894 1.70711L33.7108 35.1249L0.292894 68.5427C-0.0976306 68.9332 -0.0976316 69.5664 0.292892 69.9569C0.683416 70.3474 1.31658 70.3474 1.70711 69.9569L35.125 36.5391L68.5429 69.9569C68.9334 70.3474 69.5666 70.3474 69.9571 69.9569C70.3476 69.5664 70.3476 68.9332 69.9571 68.5427L36.5392 35.1249L69.9571 1.70711C70.3476 1.31658 70.3476 0.683419 69.9571 0.292894C69.5666 -0.0976306 68.9334 -0.0976316 68.5429 0.292892L35.125 33.7107L1.70711 0.292892Z" fill="white"/>
</svg>
