<svg width="102" height="32" viewBox="0 0 102 32" fill="none" xmlns="http://www.w3.org/2000/svg">
<path d="M21.7244 12.6453C17.7671 12.6453 14.6631 15.84 14.6631 19.92C14.6631 24 17.7617 27.1947 21.7244 27.1947C25.6871 27.1947 28.7857 24 28.7857 19.92C28.7857 15.84 25.6871 12.6453 21.7244 12.6453ZM21.7244 24.528C19.2444 24.528 17.4417 22.592 17.4417 19.92C17.4417 17.248 19.2444 15.2853 21.7244 15.2853C24.2044 15.2853 26.0337 17.232 26.0337 19.92C26.0337 22.608 24.2204 24.528 21.7244 24.528Z" fill="#282828"/>
<path d="M40.6791 12.9653H39.6977C39.2177 12.9653 38.8284 13.3653 38.8284 13.856V20.9067C38.8284 22.3627 37.9484 24.528 35.5324 24.528C32.7431 24.528 32.4391 21.9947 32.4391 20.9067V13.856C32.4391 13.3653 32.0604 12.9653 31.5964 12.9653H30.6097C30.1297 12.9653 29.7404 13.3653 29.7404 13.856V21.6C29.7404 24.72 32.0337 27.1627 34.9617 27.1627C36.5617 27.1627 37.8897 26.528 38.8284 25.3173V25.9467C38.8284 26.4373 39.2177 26.8373 39.6977 26.8373H40.6791C41.1431 26.8373 41.5271 26.4373 41.5271 25.9467V13.8613C41.5271 13.3707 41.1484 12.9707 40.6791 12.9707V12.9653Z" fill="#282828"/>
<path d="M49.6497 12.672C48.1137 12.8053 46.7751 13.6 45.9537 14.8373V13.856C45.9537 13.3653 45.5751 12.9653 45.1111 12.9653H44.1244C43.6444 12.9653 43.2551 13.3653 43.2551 13.856V25.952C43.2551 26.4427 43.6444 26.8427 44.1244 26.8427H45.1111C45.5751 26.8427 45.9537 26.4427 45.9537 25.952V20.6133C45.9537 19.312 46.0764 17.4613 47.1484 16.448C47.7457 15.8827 48.5991 15.6267 49.6924 15.6853C50.0497 15.6853 50.3537 15.3867 50.3537 15.0347V13.3013C50.3537 13.1253 50.2791 12.96 50.1511 12.8427C50.0177 12.72 49.8364 12.6613 49.6497 12.6773V12.672Z" fill="#282828"/>
<path d="M58.5724 12.6453C56.6791 12.6453 55.1377 13.2907 53.9804 14.5653V13.8613C53.9804 13.3707 53.5911 12.9707 53.1111 12.9707H52.1244C51.6604 12.9707 51.2817 13.3707 51.2817 13.8613V31.1093C51.2817 31.6 51.6604 32 52.1244 32H53.1111C53.5911 32 53.9804 31.6 53.9804 31.1093V25.2533C55.1377 26.528 56.6844 27.1733 58.5724 27.1733C62.7804 27.1733 65.2977 23.488 65.2977 19.9253C65.2977 16.3627 62.7804 12.6507 58.5724 12.6507V12.6453ZM58.3377 24.528C55.7297 24.528 53.9804 22.6773 53.9804 19.92C53.9804 17.1627 55.7351 15.2853 58.3377 15.2853C60.9404 15.2853 62.5191 17.1467 62.5191 19.92C62.5191 22.6933 60.8391 24.528 58.3377 24.528Z" fill="#282828"/>
<path d="M78.6204 12.9653H77.6337C77.1537 12.9653 76.7644 13.3653 76.7644 13.856V14.5547C75.911 13.6107 74.4764 12.64 72.1724 12.64C67.9804 12.64 65.4737 16.336 65.4737 19.9147C65.4737 23.4933 67.9804 27.1627 72.1724 27.1627C74.4764 27.1627 75.911 26.192 76.7644 25.248V25.9467C76.7644 26.4373 77.1537 26.8373 77.6337 26.8373H78.6204C79.1004 26.8373 79.4897 26.4373 79.4897 25.9467V13.8613C79.4897 13.3707 79.1004 12.9707 78.6204 12.9707V12.9653ZM72.4071 24.528C69.9057 24.528 68.2311 22.6773 68.2311 19.92C68.2311 17.1627 69.911 15.2853 72.4071 15.2853C75.0577 15.2853 76.7697 17.104 76.7697 19.92C76.7697 22.736 75.0151 24.528 72.4071 24.528Z" fill="#282828"/>
<path d="M86.423 18.656C86.2204 18.6133 86.0177 18.576 85.8097 18.5333C84.5031 18.288 83.2657 18.0533 83.2657 16.8747C83.2657 15.8613 84.1084 15.152 85.3191 15.152C86.6897 15.152 87.287 15.8773 87.4737 16.1867C87.6604 16.512 88.0497 16.6613 88.423 16.56L89.3511 16.2933C89.591 16.2293 89.7884 16.0587 89.8951 15.824C90.0071 15.5733 90.0017 15.28 89.8737 15.04C89.1431 13.5627 87.4897 12.6453 85.5484 12.6453C82.5831 12.6453 80.5084 14.464 80.5084 17.0613C80.5084 19.1573 81.6711 20.416 84.1617 21.0187C84.5404 21.1093 84.9404 21.1787 85.3244 21.2427C86.7964 21.4987 88.0711 21.7227 88.0711 22.8533C88.0711 23.984 87.159 24.6027 85.5751 24.6027C83.9911 24.6027 83.2071 24.0107 82.8924 23.504C82.6577 23.1573 82.2631 23.0187 81.8897 23.1467L80.8551 23.52C80.6204 23.6 80.4284 23.7867 80.3324 24.0267C80.2364 24.272 80.2471 24.544 80.3697 24.784C81.1964 26.2773 83.1217 27.168 85.5164 27.168C88.7537 27.168 90.8391 25.3813 90.8391 22.6187C90.8391 20.432 89.6391 19.36 86.4071 18.6613L86.423 18.656Z" fill="#282828"/>
<path d="M96.8604 18.656C96.6577 18.6133 96.4551 18.576 96.2471 18.5333C94.9404 18.288 93.7031 18.0533 93.7031 16.8747C93.7031 15.8613 94.5457 15.152 95.7564 15.152C97.1271 15.152 97.7244 15.8773 97.9111 16.1867C98.0977 16.512 98.4871 16.6613 98.8604 16.56L99.7884 16.2933C100.028 16.2293 100.226 16.0587 100.332 15.824C100.444 15.5733 100.439 15.28 100.311 15.04C99.5804 13.5627 97.9271 12.6453 95.9857 12.6453C93.0204 12.6453 90.9457 14.464 90.9457 17.0613C90.9457 19.1573 92.1084 20.416 94.5991 21.0187C94.9777 21.1093 95.3777 21.1787 95.7617 21.2427C97.2337 21.4987 98.5084 21.7227 98.5084 22.8533C98.5084 23.984 97.5964 24.6027 96.0124 24.6027C94.4284 24.6027 93.6444 24.0107 93.3297 23.504C93.0951 23.1573 92.7004 23.0187 92.3271 23.1467L91.2924 23.52C91.0577 23.6 90.8657 23.7867 90.7697 24.0267C90.6737 24.272 90.6844 24.544 90.8071 24.784C91.6337 26.2773 93.5591 27.168 95.9537 27.168C99.1911 27.168 101.276 25.3813 101.276 22.6187C101.276 20.432 100.076 19.36 96.8444 18.6613L96.8604 18.656Z" fill="#282828"/>
<path d="M11.1111 23.4187C10.9137 23.3867 10.4071 23.2853 9.96972 23.1893C9.93239 23.184 9.89506 23.1733 9.86306 23.168C7.35106 22.7093 6.92439 21.712 6.78572 21.3867C6.44439 20.592 6.39106 19.632 6.39639 19.3547C6.39639 19.2907 6.39639 19.2853 6.39639 19.2267V15.6907H3.20172C1.43639 15.6907 0.00172447 14.256 0.00172447 12.4907V19.184C-0.0089422 19.68 0.0017245 21.792 0.908391 23.904C1.77772 25.9413 3.83106 28.5493 8.65772 29.4507C10.2897 29.808 10.6257 29.808 10.8764 29.808C12.6417 29.808 14.0764 28.3787 14.0764 26.608C14.0764 24.8373 12.7697 23.5413 11.1164 23.4187H11.1111ZM10.8764 23.408H10.8977C10.9404 23.408 10.9937 23.408 11.0631 23.4133C10.9991 23.4133 10.9404 23.408 10.8764 23.408Z" fill="#E50A84"/>
<path d="M3.20172 9.296H6.40172V4.50667C6.40172 2.74133 4.97239 1.30667 3.20172 1.30667C1.43106 1.30667 0.00172447 2.74133 0.00172447 4.50667V12.4907C0.00172447 10.7253 1.43639 9.296 3.20172 9.296Z" fill="#FFB926"/>
<path d="M10.4551 15.6907C12.2204 15.6907 13.6551 14.2613 13.6551 12.4907C13.6551 10.72 12.2257 9.29067 10.4551 9.29067H6.39639V15.6853H10.4551V15.6907Z" fill="#00AFC3"/>
<path d="M3.20172 15.6907H6.40172V9.296H3.20172C1.43639 9.296 0.00172447 10.7253 0.00172447 12.4907C0.00172447 14.256 1.43106 15.6907 3.19639 15.6907H3.20172Z" fill="#7E318E"/>
<path d="M32.0604 11.04H32.6844C32.7751 11.04 32.8551 10.992 32.8924 10.912C32.9297 10.832 32.9244 10.736 32.8711 10.6667C31.8577 9.29067 31.2551 7.424 31.2551 5.67467V5.35467C31.2551 3.616 31.8417 1.824 32.8711 0.442667C32.9244 0.373333 32.9297 0.277333 32.8924 0.197333C32.8551 0.117333 32.7697 0.0693333 32.6844 0.0693333H32.0604C31.9911 0.0693333 31.9217 0.101333 31.8791 0.154667C31.0204 1.2 30.0017 2.96533 30.0017 5.44533V5.664C30.0017 8.16 31.0204 9.92 31.8791 10.9547C31.9217 11.008 31.9911 11.04 32.0604 11.04Z" fill="#282828"/>
<path d="M41.9057 6.752V6.00533C41.9057 5.87733 41.7991 5.77067 41.6711 5.77067H33.0417C32.9137 5.77067 32.8071 5.87733 32.8071 6.00533V6.752C32.8071 6.88 32.9137 6.98667 33.0417 6.98667H36.7431V10.24C36.7431 10.368 36.8497 10.4747 36.9777 10.4747H37.7351C37.8631 10.4747 37.9697 10.368 37.9697 10.24V6.98667H41.6711C41.7991 6.98667 41.9057 6.88 41.9057 6.752Z" fill="#282828"/>
<path d="M34.0924 5.08267C34.1297 5.168 34.2151 5.22667 34.3057 5.22667C34.3217 5.22667 34.3377 5.22667 34.3484 5.22667C35.6604 4.97067 36.8017 4.288 37.3777 3.424C37.9484 4.26667 39.0737 4.93867 40.3751 5.18933C40.4817 5.21067 40.5884 5.152 40.6364 5.056L40.9564 4.34133C40.9831 4.27733 40.9831 4.20267 40.9511 4.13867C40.9191 4.07467 40.8551 4.032 40.7857 4.016C39.4524 3.76533 38.0284 3.008 37.9964 1.65333H40.4071C40.5351 1.65333 40.6417 1.54667 40.6417 1.41867V0.72C40.6417 0.592 40.5351 0.485333 40.4071 0.485333H34.3217C34.1937 0.485333 34.0871 0.592 34.0871 0.72V1.41333C34.0871 1.54133 34.1937 1.648 34.3217 1.648H36.7697C36.7377 2.95467 35.3404 3.792 33.9591 4.04267C33.8897 4.05333 33.8257 4.10133 33.7937 4.16533C33.7617 4.22933 33.7564 4.304 33.7831 4.368L34.0924 5.08267Z" fill="#282828"/>
<path d="M44.7271 5.42933C44.7271 2.97067 43.7137 1.2 42.8604 0.149333C42.8177 0.096 42.7484 0.064 42.6791 0.064H42.0231C41.9324 0.064 41.8524 0.112 41.8151 0.192C41.7777 0.272 41.7831 0.368 41.8364 0.437333C42.8444 1.77067 43.4471 3.632 43.4471 5.41333V5.73333C43.4471 7.50933 42.8604 9.30667 41.8364 10.656C41.7831 10.7253 41.7724 10.8213 41.8151 10.9013C41.8577 10.9813 41.9377 11.0293 42.0231 11.0293H42.6791C42.7484 11.0293 42.8177 10.9973 42.8604 10.944C43.7137 9.89333 44.7271 8.12267 44.7271 5.65333V5.424V5.42933Z" fill="#282828"/>
<path d="M53.4151 0H52.6471C52.5175 0 52.4124 0.105064 52.4124 0.234667V5.49867C52.4124 5.62827 52.5175 5.73333 52.6471 5.73333H53.4151C53.5447 5.73333 53.6497 5.62827 53.6497 5.49867V0.234667C53.6497 0.105064 53.5447 0 53.4151 0Z" fill="#282828"/>
<path d="M47.8631 7.808C47.7351 7.808 47.6284 7.91467 47.6284 8.04267V10.672C47.6284 10.8 47.7351 10.9067 47.8631 10.9067H53.4684C53.5964 10.9067 53.7031 10.8 53.7031 10.672V9.936C53.7031 9.808 53.5964 9.70133 53.4684 9.70133H48.8551V8.992H53.4151C53.5431 8.992 53.6497 8.88533 53.6497 8.75733V6.17067C53.6497 6.04267 53.5431 5.936 53.4151 5.936H47.8631C47.7351 5.936 47.6284 6.04267 47.6284 6.17067V6.90667C47.6284 7.03467 47.7351 7.14133 47.8631 7.14133H52.4124V7.808H47.8631Z" fill="#282828"/>
<path d="M47.5164 5.57867C48.7271 5.57867 49.7031 4.704 49.9057 3.47733H50.5617V5.46667C50.5617 5.59467 50.6684 5.70133 50.7964 5.70133H51.5431C51.6711 5.70133 51.7777 5.59467 51.7777 5.46667V0.378667C51.7777 0.250667 51.6711 0.144 51.5431 0.144H50.7964C50.6684 0.144 50.5617 0.250667 50.5617 0.378667V2.26667H49.8577C49.5804 1.15733 48.6631 0.426667 47.5164 0.426667C46.1244 0.426667 45.0791 1.52533 45.0791 2.98667C45.0791 4.448 46.1511 5.57867 47.5164 5.57867ZM47.5164 1.62667C48.2151 1.62667 48.6844 2.176 48.6844 2.98667C48.6844 3.79733 48.2151 4.34667 47.5164 4.34667C46.8177 4.34667 46.3484 3.78667 46.3484 2.98667C46.3484 2.18667 46.8177 1.62667 47.5164 1.62667Z" fill="#282828"/>
<path d="M62.5351 0.0213333H61.7671C61.6375 0.0213333 61.5324 0.126397 61.5324 0.256V9.42933C61.5324 9.55894 61.6375 9.664 61.7671 9.664H62.5351C62.6647 9.664 62.7697 9.55894 62.7697 9.42933V0.256C62.7697 0.126397 62.6647 0.0213333 62.5351 0.0213333Z" fill="#282828"/>
<path d="M56.6897 6.58133C57.9644 6.58133 58.9137 5.648 59.1057 4.23467H59.7671V9.17333C59.7671 9.30133 59.8737 9.408 60.0017 9.408H60.7591C60.8871 9.408 60.9937 9.30133 60.9937 9.17333V0.389333C60.9937 0.261333 60.8871 0.154667 60.7591 0.154667H60.0017C59.8737 0.154667 59.7671 0.261333 59.7671 0.389333V3.01867H59.0791C58.8391 1.696 57.9217 0.848 56.6951 0.848C55.2604 0.848 54.2577 2.02133 54.2577 3.70133C54.2577 5.38133 55.2817 6.58133 56.6951 6.58133H56.6897ZM56.6897 2.09067C57.4364 2.09067 57.9217 2.72533 57.9217 3.70667C57.9217 4.83733 57.3031 5.344 56.6897 5.344C55.9644 5.344 55.4791 4.688 55.4791 3.70667C55.4791 2.72533 55.9537 2.09067 56.6897 2.09067Z" fill="#282828"/>
<path d="M72.1511 7.2H63.5217C63.3921 7.2 63.2871 7.30506 63.2871 7.43467V8.192C63.2871 8.3216 63.3921 8.42667 63.5217 8.42667H72.1511C72.2807 8.42667 72.3857 8.3216 72.3857 8.192V7.43467C72.3857 7.30506 72.2807 7.2 72.1511 7.2Z" fill="#282828"/>
<path d="M64.3911 5.792C64.4337 5.872 64.5137 5.92 64.5991 5.92C64.6204 5.92 64.6417 5.92 64.6631 5.90933C66.0444 5.504 67.2337 4.58133 67.8364 3.488C68.4337 4.56533 69.6284 5.47733 71.0151 5.888C71.1271 5.92 71.2391 5.872 71.2924 5.77067L71.6604 5.04533C71.6924 4.98133 71.6924 4.912 71.6657 4.848C71.6391 4.784 71.5857 4.736 71.5164 4.71467C69.6924 4.176 68.4657 2.784 68.4657 1.25333V0.746667C68.4657 0.618667 68.3591 0.512 68.2311 0.512H67.4311C67.3031 0.512 67.1964 0.618667 67.1964 0.746667V1.25333C67.1964 2.77333 65.9431 4.208 64.1457 4.74133C64.0764 4.76267 64.0231 4.81067 63.9964 4.87467C63.9697 4.93867 63.9697 5.01333 64.0071 5.07733L64.3857 5.80267L64.3911 5.792Z" fill="#282828"/>
<path d="M80.6684 6.384H75.2711C75.1431 6.384 75.0364 6.49067 75.0364 6.61867V10.5493C75.0364 10.6773 75.1431 10.784 75.2711 10.784H80.6684C80.7964 10.784 80.9031 10.6773 80.9031 10.5493V6.61867C80.9031 6.49067 80.7964 6.384 80.6684 6.384ZM76.2631 9.568V7.59467H79.6764V9.568H76.2631Z" fill="#282828"/>
<path d="M77.5751 2.688V3.41333C77.5751 3.54133 77.6817 3.648 77.8097 3.648H79.6764V6C79.6764 6.128 79.7831 6.23467 79.9111 6.23467H80.6684C80.7964 6.23467 80.9031 6.128 80.9031 6V0.234667C80.9031 0.106667 80.7964 0 80.6684 0H79.9111C79.7831 0 79.6764 0.106667 79.6764 0.234667V2.45333H77.8097C77.6817 2.45333 77.5751 2.56 77.5751 2.688Z" fill="#282828"/>
<path d="M72.9831 6.27733C73.0204 6.36267 73.1057 6.416 73.1964 6.416C73.2177 6.416 73.2391 6.416 73.2604 6.40533C76.1724 5.568 77.7457 3.59467 77.815 0.693333C77.815 0.629333 77.7937 0.570667 77.7511 0.522667C77.7084 0.48 77.6444 0.453333 77.5857 0.453333H73.4897C73.3617 0.453333 73.2551 0.56 73.2551 0.688V1.41333C73.2551 1.54133 73.3617 1.648 73.4897 1.648H76.4657C76.4337 1.904 76.3751 2.16 76.2897 2.41067L73.0737 2.576C73.0044 2.576 72.9457 2.61333 72.9031 2.66667C72.8604 2.72 72.8444 2.78933 72.8551 2.85333L72.9991 3.61067C73.0204 3.728 73.1271 3.808 73.2497 3.80267L75.6124 3.61067C74.9671 4.4 74.0124 4.96533 72.8284 5.25333C72.7591 5.26933 72.7057 5.31733 72.6737 5.38133C72.6417 5.44533 72.6417 5.52 72.6737 5.584L72.9937 6.27733H72.9831Z" fill="#282828"/>
<path d="M86.8497 3.44V4.16533C86.8497 4.29333 86.9564 4.4 87.0844 4.4H88.7964V9.42933C88.7964 9.55733 88.903 9.664 89.0311 9.664H89.7884C89.9164 9.664 90.023 9.55733 90.023 9.42933V0.256C90.023 0.128 89.9164 0.0213333 89.7884 0.0213333H89.0311C88.903 0.0213333 88.7964 0.128 88.7964 0.256V3.20533H87.0844C86.9564 3.20533 86.8497 3.312 86.8497 3.44Z" fill="#282828"/>
<path d="M81.9591 7.09867C84.2097 7.06667 86.0764 6.93867 87.6764 6.69867C87.799 6.68267 87.8897 6.57067 87.8737 6.44267L87.8044 5.71733C87.7991 5.65333 87.7671 5.59467 87.7137 5.552C87.6604 5.50933 87.5964 5.49867 87.5324 5.50933C87.1484 5.57333 86.7804 5.632 86.2524 5.68L86.5457 2.38933C86.5511 2.32533 86.5297 2.26667 86.4924 2.21867C86.4551 2.17067 86.3911 2.13867 86.3324 2.13867L85.5644 2.08533C85.5004 2.08533 85.4417 2.10133 85.3937 2.144C85.3457 2.18667 85.3191 2.24533 85.3137 2.304L85.0737 5.76533C84.855 5.776 84.6311 5.78667 84.4124 5.79733L84.1937 5.808L83.9804 2.31467C83.9804 2.25067 83.9484 2.192 83.8951 2.14933C83.8471 2.10667 83.7831 2.09067 83.7191 2.096L82.9084 2.18667C82.7804 2.20267 82.6897 2.31467 82.7004 2.43733L82.9777 5.84533C82.5724 5.85067 82.1991 5.85067 81.8897 5.85067C81.8364 5.86133 81.7617 5.87733 81.7137 5.92533C81.6711 5.97333 81.6497 6.03733 81.6551 6.10667L81.7244 6.89067C81.7351 7.01333 81.8364 7.104 81.9591 7.104V7.09867Z" fill="#282828"/>
<path d="M87.1057 0.816H82.1351C82.0054 0.816 81.9004 0.921064 81.9004 1.05067V1.79733C81.9004 1.92694 82.0054 2.032 82.1351 2.032H87.1057C87.2353 2.032 87.3404 1.92694 87.3404 1.79733V1.05067C87.3404 0.921064 87.2353 0.816 87.1057 0.816Z" fill="#282828"/>
<path d="M91.5111 6.78933C93.9484 6.78933 95.7457 6.64533 97.0044 6.34133C97.1217 6.31467 97.2017 6.19733 97.1804 6.07467L97.0684 5.34933C97.0577 5.28533 97.0204 5.22667 96.967 5.18933C96.9137 5.152 96.8444 5.14133 96.7804 5.15733C95.6871 5.41867 94.2524 5.55733 92.5191 5.568V0.853333C92.5191 0.725333 92.4124 0.618667 92.2844 0.618667H91.5057C91.3777 0.618667 91.2711 0.725333 91.2711 0.853333V6.55467C91.2711 6.68267 91.3777 6.78933 91.5057 6.78933H91.5111Z" fill="#282828"/>
<path d="M98.775 0.032H98.007C97.8774 0.032 97.7724 0.137064 97.7724 0.266667V9.42933C97.7724 9.55894 97.8774 9.664 98.007 9.664H98.775C98.9047 9.664 99.0097 9.55894 99.0097 9.42933V0.266667C99.0097 0.137064 98.9047 0.032 98.775 0.032Z" fill="#282828"/>
</svg>
