<svg width="32" height="33" viewBox="0 0 32 33" fill="none" xmlns="http://www.w3.org/2000/svg">
<path fill-rule="evenodd" clip-rule="evenodd" d="M16 0.5C7.164 0.5 0 7.664 0 16.5C0 25.336 7.164 32.5 16 32.5C24.836 32.5 32 25.336 32 16.5C32 7.664 24.836 0.5 16 0.5ZM25.336 20.448C25.336 23.424 22.924 25.84 19.944 25.84H12.048C9.072 25.84 6.656 23.428 6.656 20.448V12.552C6.656 9.576 9.068 7.16 12.048 7.16H19.944C22.92 7.16 25.336 9.572 25.336 12.552V20.448ZM20.04 8.92801H11.96C9.98402 8.92801 8.38002 10.528 8.38002 12.508V20.588C8.38002 22.564 9.98402 24.168 11.96 24.168H20.04C22.016 24.168 23.62 22.564 23.62 20.588V12.508C23.62 10.532 22.016 8.92801 20.04 8.92801ZM16 21.392C13.324 21.392 11.156 19.224 11.156 16.548C11.156 13.872 13.324 11.704 16 11.704C18.676 11.704 20.844 13.872 20.844 16.548C20.844 19.224 18.676 21.392 16 21.392ZM21.008 12.644C20.384 12.644 19.88 12.14 19.88 11.516C19.88 10.892 20.384 10.388 21.008 10.388C21.632 10.388 22.136 10.892 22.136 11.516C22.136 12.14 21.632 12.644 21.008 12.644ZM12.8599 16.544C12.8599 14.812 14.2639 13.404 15.9999 13.404C17.7319 13.404 19.1399 14.812 19.1399 16.544C19.1399 18.276 17.7319 19.684 15.9999 19.684C14.2679 19.684 12.8599 18.276 12.8599 16.544Z" fill="white"/>
</svg>
