<svg width="15" height="29" viewBox="0 0 15 29" fill="none" xmlns="http://www.w3.org/2000/svg">
<path d="M11.1111 22.3613C10.9137 22.3293 10.4071 22.2279 9.96972 22.1319C9.93239 22.1266 9.89506 22.1159 9.86306 22.1106C7.35106 21.6519 6.92439 20.6546 6.78573 20.3293C6.44439 19.5346 6.39106 18.5746 6.39639 18.2973C6.39639 18.2333 6.39639 18.2279 6.39639 18.1693V14.6333H3.20172C1.43639 14.6333 0.00172447 13.1986 0.00172447 11.4333V18.1266C-0.0089422 18.6226 0.00172448 20.7346 0.908391 22.8466C1.77772 24.8839 3.83106 27.4919 8.65772 28.3933C10.2897 28.7506 10.6257 28.7506 10.8764 28.7506C12.6417 28.7506 14.0764 27.3213 14.0764 25.5506C14.0764 23.7799 12.7697 22.4839 11.1164 22.3613H11.1111ZM10.8764 22.3506H10.8977C10.9404 22.3506 10.9937 22.3506 11.0631 22.3559C10.9991 22.3559 10.9404 22.3506 10.8764 22.3506Z" fill="#E50A84"/>
<path d="M3.20172 8.2386H6.40172V3.44927C6.40172 1.68393 4.97239 0.249268 3.20172 0.249268C1.43106 0.249268 0.00172447 1.68393 0.00172447 3.44927V11.4333C0.00172447 9.66794 1.43639 8.2386 3.20172 8.2386Z" fill="#FFB926"/>
<path d="M10.4551 14.6333C12.2204 14.6333 13.6551 13.2039 13.6551 11.4333C13.6551 9.6626 12.2257 8.23327 10.4551 8.23327H6.39639V14.6279H10.4551V14.6333Z" fill="#00AFC3"/>
<path d="M3.20172 14.6333H6.40172V8.2386H3.20172C1.43639 8.2386 0.00172447 9.66794 0.00172447 11.4333C0.00172447 13.1986 1.43106 14.6333 3.19639 14.6333H3.20172Z" fill="#7E318E"/>
</svg>
